# xmcd CD database file
#
# Track frame offsets:
#	225
#	35495
#	52156
#	93977
#	121823
#	127574
#	164314
#	200968
#	207734
#	242351
#	278570
#	284604
#
# Disc length: 4471 seconds
#
# Revision: 0
# Processed by: cddbd v1.5.2PL0 Copyright (c) Steve Scherf et al.
# Submitted via: CDex 1.70beta2
#
DISCID=b011740c
DTITLE=Brad Dutz - Heat The Grill Cook Loin
DYEAR=1999
DGENRE=Jazz
TTITLE0=Sand Helps Cohesion
TTITLE1=Carniverous Marsupials
TTITLE2=Shishkabubble
TTITLE3=Contained Freight
TTITLE4=Triple Latte
TTITLE5=Chunks
TTITLE6=Zax
TTITLE7=Zanjan
TTITLE8=Heat The Grill
TTITLE9=Fish Don't Cough
TTITLE10=Bamburg
TTITLE11=It Does Not Matter If You Get A Hint On The Quiz
EXTD=YEAR: 1999
EXTT0=
EXTT1=
EXTT2=
EXTT3=
EXTT4=
EXTT5=
EXTT6=
EXTT7=
EXTT8=
EXTT9=
EXTT10=
EXTT11=
PLAYORDER=
